<svg width="66" height="66" viewBox="0 0 66 66" fill="none" xmlns="http://www.w3.org/2000/svg">
<path d="M44.5501 46.804L41.1543 54.404C40.1928 56.556 37.138 56.556 36.1764 54.404L32.7807 46.804C32.2331 45.5784 31.2526 44.5979 30.0269 44.0503L22.427 40.6546C20.275 39.693 20.275 36.6382 22.427 35.6767L30.0269 32.2809C31.2526 31.7333 32.2331 30.7528 32.7807 29.5272L36.1764 21.9273C37.138 19.7752 40.1928 19.7752 41.1543 21.9273L44.55 29.5272C45.0977 30.7528 46.0782 31.7333 47.3038 32.2809L54.9037 35.6767C57.0558 36.6382 57.0558 39.693 54.9037 40.6546L47.3038 44.0503C46.0782 44.5979 45.0977 45.5784 44.5501 46.804Z" stroke="url(#paint0_linear_42_1978)" stroke-width="4.08917"/>
<path d="M29.0799 6.30766C28.5704 5.16731 26.9517 5.1673 26.4422 6.30766L25.4298 8.57338L23.1641 9.58573C22.0237 10.0952 22.0237 11.714 23.1641 12.2235L25.4298 13.2359L26.4422 15.5016C26.9517 16.6419 28.5704 16.6419 29.0799 15.5016L30.0923 13.2359L32.358 12.2235C33.4984 11.714 33.4984 10.0952 32.358 9.58573L30.0923 8.57338L29.0799 6.30766Z" fill="url(#paint1_linear_42_1978)"/>
<path d="M16.1088 14.9136C15.3445 13.2031 12.9164 13.2031 12.1521 14.9136L10.6336 18.3122L7.23504 19.8307C5.52452 20.595 5.52452 23.0231 7.23504 23.7874L10.6336 25.3059L12.1521 28.7045C12.9164 30.415 15.3445 30.415 16.1088 28.7045L17.6273 25.3059L21.0259 23.7874C22.7365 23.0231 22.7365 20.595 21.0259 19.8307L17.6273 18.3122L16.1088 14.9136Z" fill="url(#paint2_linear_42_1978)"/>
<defs>
<linearGradient id="paint0_linear_42_1978" x1="38.6654" y1="20.3132" x2="38.6654" y2="56.018" gradientUnits="userSpaceOnUse">
<stop stop-color="#0029FF"/>
<stop offset="1" stop-color="white"/>
</linearGradient>
<linearGradient id="paint1_linear_42_1978" x1="19.5827" y1="5.45239" x2="19.5827" y2="29.9874" gradientUnits="userSpaceOnUse">
<stop stop-color="#0029FF"/>
<stop offset="1" stop-color="white"/>
</linearGradient>
<linearGradient id="paint2_linear_42_1978" x1="19.5827" y1="5.45239" x2="19.5827" y2="29.9874" gradientUnits="userSpaceOnUse">
<stop stop-color="#0029FF"/>
<stop offset="1" stop-color="white"/>
</linearGradient>
</defs>
</svg>
