<svg width="93" height="92" viewBox="0 0 93 92" fill="none" xmlns="http://www.w3.org/2000/svg">
<g opacity="0.4" filter="url(#filter0_f_42_1968)">
<path d="M47.0464 52.1287C47.0464 49.2578 49.3738 46.9304 52.2447 46.9304H75.1774C78.0484 46.9304 80.3758 49.2578 80.3758 52.1287V64.5621C80.3758 67.4331 78.0484 69.7604 75.1774 69.7604C75.0725 69.7604 74.9679 69.7604 74.8636 69.7604C74.0994 69.7604 73.9937 73.1725 73.2612 73.1725C72.4993 73.1725 71.1118 69.7604 70.3769 69.7604C64.2439 69.7604 58.9211 69.7604 52.246 69.7604C49.3751 69.7604 47.0464 67.4331 47.0464 64.5621V52.1287Z" fill="url(#paint0_linear_42_1968)"/>
<path d="M47.1324 52.1287C47.1324 49.3053 49.4213 47.0165 52.2447 47.0165H75.1774C78.0009 47.0165 80.2897 49.3053 80.2897 52.1287V64.5621C80.2897 67.3855 78.0008 69.6744 75.1774 69.6744H75.1768H75.1762H75.1756H75.175H75.1743H75.1737H75.1731H75.1725H75.1719H75.1713H75.1707H75.17H75.1694H75.1688H75.1682H75.1676H75.167H75.1663H75.1657H75.1651H75.1645H75.1639H75.1633H75.1627H75.162H75.1614H75.1608H75.1602H75.1596H75.159H75.1584H75.1577H75.1571H75.1565H75.1559H75.1553H75.1547H75.1541H75.1534H75.1528H75.1522H75.1516H75.151H75.1504H75.1498H75.1491H75.1485H75.1479H75.1473H75.1467H75.1461H75.1455H75.1448H75.1442H75.1436H75.143H75.1424H75.1418H75.1412H75.1405H75.1399H75.1393H75.1387H75.1381H75.1375H75.1369H75.1362H75.1356H75.135H75.1344H75.1338H75.1332H75.1325H75.1319H75.1313H75.1307H75.1301H75.1295H75.1289H75.1283H75.1276H75.127H75.1264H75.1258H75.1252H75.1246H75.1239H75.1233H75.1227H75.1221H75.1215H75.1209H75.1203H75.1196H75.119H75.1184H75.1178H75.1172H75.1166H75.116H75.1154H75.1147H75.1141H75.1135H75.1129H75.1123H75.1117H75.1111H75.1104H75.1098H75.1092H75.1086H75.108H75.1074H75.1068H75.1061H75.1055H75.1049H75.1043H75.1037H75.1031H75.1025H75.1018H75.1012H75.1006H75.1H75.0994H75.0988H75.0982H75.0975H75.0969H75.0963H75.0957H75.0951H75.0945H75.0939H75.0932H75.0926H75.092H75.0914H75.0908H75.0902H75.0896H75.089H75.0883H75.0877H75.0871H75.0865H75.0859H75.0853H75.0847H75.084H75.0834H75.0828H75.0822H75.0816H75.081H75.0804H75.0797H75.0791H75.0785H75.0779H75.0773H75.0767H75.0761H75.0755H75.0748H75.0742H75.0736H75.073H75.0724H75.0718H75.0712H75.0705H75.0699H75.0693H75.0687H75.0681H75.0675H75.0669H75.0662H75.0656H75.065H75.0644H75.0638H75.0632H75.0626H75.062H75.0613H75.0607H75.0601H75.0595H75.0589H75.0583H75.0577H75.057H75.0564H75.0558H75.0552H75.0546H75.054H75.0534H75.0528H75.0521H75.0515H75.0509H75.0503H75.0497H75.0491H75.0485H75.0478H75.0472H75.0466H75.046H75.0454H75.0448H75.0442H75.0436H75.0429H75.0423H75.0417H75.0411H75.0405H75.0399H75.0393H75.0386H75.038H75.0374H75.0368H75.0362H75.0356H75.035H75.0344H75.0337H75.0331H75.0325H75.0319H75.0313H75.0307H75.0301H75.0295H75.0288H75.0282H75.0276H75.027H75.0264H75.0258H75.0252H75.0245H75.0239H75.0233H75.0227H75.0221H75.0215H75.0209H75.0203H75.0196H75.019H75.0184H75.0178H75.0172H75.0166H75.016H75.0154H75.0147H75.0141H75.0135H75.0129H75.0123H75.0117H75.0111H75.0105H75.0098H75.0092H75.0086H75.008H75.0074H75.0068H75.0062H75.0055H75.0049H75.0043H75.0037H75.0031H75.0025H75.0019H75.0013H75.0006H75H74.9994H74.9988H74.9982H74.9976H74.997H74.9964H74.9957H74.9951H74.9945H74.9939H74.9933H74.9927H74.9921H74.9915H74.9908H74.9902H74.9896H74.989H74.9884H74.9878H74.9872H74.9866H74.9859H74.9853H74.9847H74.9841H74.9835H74.9829H74.9823H74.9817H74.981H74.9804H74.9798H74.9792H74.9786H74.978H74.9774H74.9768H74.9761H74.9755H74.9749H74.9743H74.9737H74.9731H74.9725H74.9719H74.9712H74.9706H74.97H74.9694H74.9688H74.9682H74.9676H74.967H74.9663H74.9657H74.9651H74.9645H74.9639H74.9633H74.9627H74.9621H74.9614H74.9608H74.9602H74.9596H74.959H74.9584H74.9578H74.9572H74.9566H74.9559H74.9553H74.9547H74.9541H74.9535H74.9529H74.9523H74.9517H74.951H74.9504H74.9498H74.9492H74.9486H74.948H74.9474H74.9468H74.9461H74.9455H74.9449H74.9443H74.9437H74.9431H74.9425H74.9419H74.9412H74.9406H74.94H74.9394H74.9388H74.9382H74.9376H74.937H74.9364H74.9357H74.9351H74.9345H74.9339H74.9333H74.9327H74.9321H74.9315H74.9308H74.9302H74.9296H74.929H74.9284H74.9278H74.9272H74.9266H74.926H74.9253H74.9247H74.9241H74.9235H74.9229H74.9223H74.9217H74.9211H74.9204H74.9198H74.9192H74.9186H74.918H74.9174H74.9168H74.9162H74.9156H74.9149H74.9143H74.9137H74.9131H74.9125H74.9119H74.9113H74.9107H74.91H74.9094H74.9088H74.9082H74.9076H74.907H74.9064H74.9058H74.9052H74.9045H74.9039H74.9033H74.9027H74.9021H74.9015H74.9009H74.9003H74.8997H74.899H74.8984H74.8978H74.8972H74.8966H74.896H74.8954H74.8948H74.8941H74.8935H74.8929H74.8923H74.8917H74.8911H74.8905H74.8899H74.8893H74.8886H74.888H74.8874H74.8868H74.8862H74.8856H74.885H74.8844H74.8838H74.8831H74.8825H74.8819H74.8813H74.8807H74.8801H74.8795H74.8789H74.8783H74.8776H74.877H74.8764H74.8758H74.8752H74.8746H74.874H74.8734H74.8728H74.8721H74.8715H74.8709H74.8703H74.8697H74.8691H74.8685H74.8679H74.8673H74.8666H74.866H74.8654H74.8648H74.8642H74.8636C74.7324 69.6744 74.6252 69.7485 74.5392 69.8521C74.4533 69.9555 74.3797 70.0983 74.314 70.2614C74.1825 70.5879 74.0734 71.0208 73.9671 71.4456L73.9612 71.4688C73.856 71.8893 73.7532 72.3001 73.633 72.6081C73.5717 72.7651 73.5082 72.889 73.4418 72.9722C73.3752 73.0556 73.3155 73.0865 73.2612 73.0865C73.1966 73.0865 73.1112 73.049 73.0037 72.9597C72.8983 72.8722 72.7832 72.7445 72.6604 72.5866C72.4149 72.2708 72.1496 71.8484 71.8819 71.4208L71.866 71.3954C71.605 70.9785 71.3422 70.5586 71.0988 70.2412C70.9746 70.0793 70.8529 69.9405 70.7364 69.8415C70.6223 69.7445 70.5003 69.6744 70.3769 69.6744H70.341H70.3051H70.2692H70.2333H70.1975H70.1617H70.1258H70.09H70.0543H70.0185H69.9828H69.947H69.9113H69.8756H69.8399H69.8043H69.7686H69.733H69.6974H69.6618H69.6262H69.5907H69.5551H69.5196H69.4841H69.4486H69.4131H69.3777H69.3422H69.3068H69.2714H69.236H69.2006H69.1652H69.1299H69.0945H69.0592H69.0239H68.9886H68.9533H68.9181H68.8828H68.8476H68.8124H68.7772H68.742H68.7068H68.6716H68.6365H68.6013H68.5662H68.5311H68.496H68.4609H68.4259H68.3908H68.3558H68.3207H68.2857H68.2507H68.2157H68.1807H68.1458H68.1108H68.0759H68.041H68.006H67.9711H67.9362H67.9014H67.8665H67.8316H67.7968H67.762H67.7271H67.6923H67.6575H67.6227H67.588H67.5532H67.5184H67.4837H67.449H67.4142H67.3795H67.3448H67.3101H67.2754H67.2408H67.2061H67.1714H67.1368H67.1022H67.0675H67.0329H66.9983H66.9637H66.9291H66.8946H66.86H66.8254H66.7909H66.7563H66.7218H66.6873H66.6528H66.6183H66.5838H66.5493H66.5148H66.4803H66.4458H66.4114H66.3769H66.3425H66.308H66.2736H66.2392H66.2048H66.1703H66.1359H66.1015H66.0672H66.0328H65.9984H65.964H65.9297H65.8953H65.861H65.8266H65.7923H65.7579H65.7236H65.6893H65.655H65.6207H65.5864H65.5521H65.5178H65.4835H65.4492H65.4149H65.3806H65.3464H65.3121H65.2778H65.2436H65.2093H65.1751H65.1408H65.1066H65.0724H65.0381H65.0039H64.9697H64.9355H64.9012H64.867H64.8328H64.7986H64.7644H64.7302H64.696H64.6618H64.6276H64.5934H64.5592H64.5251H64.4909H64.4567H64.4225H64.3883H64.3542H64.32H64.2858H64.2516H64.2175H64.1833H64.1491H64.115H64.0808H64.0467H64.0125H63.9783H63.9442H63.91H63.8759H63.8417H63.8075H63.7734H63.7392H63.7051H63.6709H63.6368H63.6026H63.5684H63.5343H63.5001H63.466H63.4318H63.3976H63.3635H63.3293H63.2952H63.261H63.2268H63.1927H63.1585H63.1243H63.0901H63.056H63.0218H62.9876H62.9534H62.9193H62.8851H62.8509H62.8167H62.7825H62.7483H62.7141H62.6799H62.6457H62.6115H62.5773H62.5431H62.5089H62.4747H62.4404H62.4062H62.372H62.3377H62.3035H62.2693H62.235H62.2008H62.1665H62.1323H62.098H62.0637H62.0295H61.9952H61.9609H61.9266H61.8923H61.858H61.8237H61.7894H61.7551H61.7208H61.6865H61.6521H61.6178H61.5835H61.5491H61.5148H61.4804H61.446H61.4117H61.3773H61.3429H61.3085H61.2741H61.2397H61.2053H61.1709H61.1364H61.102H61.0676H61.0331H60.9987H60.9642H60.9297H60.8953H60.8608H60.8263H60.7918H60.7573H60.7227H60.6882H60.6537H60.6191H60.5846H60.55H60.5154H60.4809H60.4463H60.4117H60.3771H60.3424H60.3078H60.2732H60.2385H60.2039H60.1692H60.1345H60.0998H60.0651H60.0304H59.9957H59.961H59.9262H59.8915H59.8567H59.822H59.7872H59.7524H59.7176H59.6828H59.648H59.6131H59.5783H59.5434H59.5085H59.4736H59.4387H59.4038H59.3689H59.334H59.299H59.2641H59.2291H59.1941H59.1591H59.1241H59.0891H59.0541H59.019H58.984H58.9489H58.9138H58.8787H58.8436H58.8085H58.7733H58.7382H58.703H58.6678H58.6326H58.5974H58.5622H58.5269H58.4917H58.4564H58.4211H58.3858H58.3505H58.3152H58.2799H58.2445H58.2091H58.1737H58.1383H58.1029H58.0675H58.032H57.9966H57.9611H57.9256H57.8901H57.8545H57.819H57.7834H57.7478H57.7122H57.6766H57.641H57.6053H57.5697H57.534H57.4983H57.4626H57.4268H57.3911H57.3553H57.3195H57.2837H57.2479H57.2121H57.1762H57.1403H57.1044H57.0685H57.0326H56.9966H56.9607H56.9247H56.8887H56.8526H56.8166H56.7805H56.7444H56.7083H56.6722H56.6361H56.5999H56.5637H56.5275H56.4913H56.4551H56.4188H56.3825H56.3462H56.3099H56.2735H56.2372H56.2008H56.1644H56.128H56.0915H56.055H56.0186H55.982H55.9455H55.909H55.8724H55.8358H55.7992H55.7625H55.7259H55.6892H55.6525H55.6157H55.579H55.5422H55.5054H55.4686H55.4318H55.3949H55.358H55.3211H55.2842H55.2472H55.2102H55.1732H55.1362H55.0992H55.0621H55.025H54.9879H54.9507H54.9135H54.8763H54.8391H54.8019H54.7646H54.7273H54.69H54.6527H54.6153H54.5779H54.5405H54.5031H54.4656H54.4281H54.3906H54.353H54.3155H54.2779H54.2403H54.2026H54.1649H54.1272H54.0895H54.0518H54.014H53.9762H53.9384H53.9005H53.8626H53.8247H53.7868H53.7488H53.7108H53.6728H53.6347H53.5967H53.5586H53.5204H53.4823H53.4441H53.4059H53.3676H53.3294H53.2911H53.2527H53.2144H53.176H53.1376H53.0992H53.0607H53.0222H52.9837H52.9451H52.9065H52.8679H52.8293H52.7906H52.7519H52.7132H52.6744H52.6356H52.5968H52.5579H52.5191H52.4801H52.4412H52.4022H52.3632H52.3242H52.2851H52.246C49.4226 69.6744 47.1324 67.3855 47.1324 64.5621V52.1287Z" stroke="white" stroke-width="0.172086"/>
</g>
<g filter="url(#filter1_d_42_1968)">
<path d="M45.7056 46.5863C45.7056 43.3906 48.2961 40.8 51.4918 40.8H75.7388C78.9345 40.8 81.5251 43.3906 81.5251 46.5863V60.363C81.5251 63.5586 78.9344 66.1492 75.7388 66.1492C75.6928 66.1492 75.6469 66.1492 75.6011 66.1492C74.7798 66.1492 74.6662 69.9378 73.879 69.9378C73.0602 69.9378 71.569 66.1492 70.7792 66.1492C64.2493 66.1492 58.5739 66.1492 51.4934 66.1492C48.2978 66.1492 45.7056 63.5586 45.7056 60.363V46.5863Z" fill="#B0CEFF"/>
</g>
<g filter="url(#filter2_f_42_1968)">
<rect x="11.2495" y="19.1785" width="55.8588" height="39.2374" rx="10.8993" fill="#0047FF"/>
</g>
<path d="M65.0518 28.5414C65.0518 24.0982 61.4499 20.4963 57.0067 20.4963H23.2943C18.8511 20.4963 15.2492 24.0982 15.2492 28.5414V47.6962C15.2492 52.1393 18.8512 55.7412 23.2943 55.7412C23.3582 55.7412 23.4221 55.7412 23.4858 55.7412C24.6277 55.7412 24.7857 61.0088 25.8802 61.0088C27.0186 61.0088 29.0919 55.7412 30.19 55.7412C39.269 55.7412 47.1599 55.7412 57.0045 55.7412C61.4476 55.7412 65.0518 52.1393 65.0518 47.6962V28.5414Z" fill="url(#paint1_linear_42_1968)" fill-opacity="0.3"/>
<circle cx="33.1589" cy="38.5973" r="2.2028" fill="white"/>
<circle cx="40.2472" cy="38.5973" r="2.2028" fill="white"/>
<circle cx="47.3346" cy="38.5973" r="2.2028" fill="white"/>
<defs>
<filter id="filter0_f_42_1968" x="39.3845" y="39.2685" width="48.6534" height="41.566" filterUnits="userSpaceOnUse" color-interpolation-filters="sRGB">
<feFlood flood-opacity="0" result="BackgroundImageFix"/>
<feBlend mode="normal" in="SourceGraphic" in2="BackgroundImageFix" result="shape"/>
<feGaussianBlur stdDeviation="3.83096" result="effect1_foregroundBlur_42_1968"/>
</filter>
<filter id="filter1_d_42_1968" x="44.1797" y="38.7292" width="41.051" height="34.3693" filterUnits="userSpaceOnUse" color-interpolation-filters="sRGB">
<feFlood flood-opacity="0" result="BackgroundImageFix"/>
<feColorMatrix in="SourceAlpha" type="matrix" values="0 0 0 0 0 0 0 0 0 0 0 0 0 0 0 0 0 0 127 0" result="hardAlpha"/>
<feOffset dx="1.08993" dy="0.544964"/>
<feGaussianBlur stdDeviation="1.30791"/>
<feComposite in2="hardAlpha" operator="out"/>
<feColorMatrix type="matrix" values="0 0 0 0 1 0 0 0 0 1 0 0 0 0 1 0 0 0 0.4 0"/>
<feBlend mode="normal" in2="BackgroundImageFix" result="effect1_dropShadow_42_1968"/>
<feBlend mode="normal" in="SourceGraphic" in2="effect1_dropShadow_42_1968" result="shape"/>
</filter>
<filter id="filter2_f_42_1968" x="5.50307" y="13.432" width="67.3518" height="50.7302" filterUnits="userSpaceOnUse" color-interpolation-filters="sRGB">
<feFlood flood-opacity="0" result="BackgroundImageFix"/>
<feBlend mode="normal" in="SourceGraphic" in2="BackgroundImageFix" result="shape"/>
<feGaussianBlur stdDeviation="2.87322" result="effect1_foregroundBlur_42_1968"/>
</filter>
<linearGradient id="paint0_linear_42_1968" x1="47.0464" y1="44.774" x2="66.6175" y2="90.5306" gradientUnits="userSpaceOnUse">
<stop stop-color="#0047FF" stop-opacity="0.89"/>
<stop offset="1" stop-color="#6993FF"/>
</linearGradient>
<linearGradient id="paint1_linear_42_1968" x1="16.3028" y1="20.4963" x2="54.0377" y2="55.5496" gradientUnits="userSpaceOnUse">
<stop stop-color="white"/>
<stop offset="0.779545" stop-color="white"/>
<stop offset="0.988497" stop-color="white"/>
</linearGradient>
</defs>
</svg>
