<svg width="27" height="24" viewBox="0 0 27 24" fill="none" xmlns="http://www.w3.org/2000/svg">
<path d="M22.2212 10.999H24.4433C24.4433 5.869 20.1402 2 14.4326 2V4C18.9458 4 22.2212 6.943 22.2212 10.999Z" fill="white"/>
<path d="M14.444 7.99999C16.7806 7.99999 17.7772 8.89699 17.7772 11H19.9994C19.9994 7.77499 18.0272 5.99999 14.444 5.99999V7.99999ZM18.2461 13.443C18.0326 13.2683 17.752 13.1752 17.4637 13.1832C17.1753 13.1912 16.9017 13.2998 16.7006 13.486L14.0418 15.947C13.4018 15.837 12.1152 15.476 10.7908 14.287C9.46642 13.094 9.06532 11.933 8.94644 11.361L11.6786 8.96699C11.8857 8.78612 12.0065 8.53982 12.0154 8.2802C12.0243 8.02059 11.9206 7.76804 11.7263 7.57599L7.62093 3.51299C7.42655 3.32035 7.15637 3.2035 6.8678 3.18725C6.57923 3.17101 6.29498 3.25665 6.07544 3.42599L3.66442 5.28699C3.47233 5.46051 3.35768 5.69145 3.34221 5.93599C3.32554 6.18599 3.00778 12.108 8.10981 16.702C12.5607 20.707 18.1361 21 19.6716 21C19.896 21 20.0338 20.994 20.0705 20.992C20.3421 20.9783 20.5986 20.8747 20.7904 20.701L22.857 18.53C23.0453 18.3325 23.1407 18.0768 23.1228 17.817C23.105 17.5573 22.9753 17.3141 22.7615 17.139L18.2461 13.443Z" fill="white"/>
</svg>
