<svg width="27" height="28" viewBox="0 0 27 28" fill="none" xmlns="http://www.w3.org/2000/svg">
<path fill-rule="evenodd" clip-rule="evenodd" d="M13.6985 20.9728C13.4345 20.8473 13.1276 20.8473 12.8635 20.9728L7.19111 23.6681C6.47263 24.0095 5.66994 23.3906 5.8234 22.6136L6.98025 16.7556C7.04148 16.4455 6.94588 16.1253 6.72443 15.8987L2.531 11.6083C1.97392 11.0384 2.31177 10.0805 3.10481 9.98155L8.97242 9.24916C9.2938 9.20905 9.57373 9.0118 9.71834 8.72357L12.4145 3.3495C12.7711 2.63871 13.7909 2.63871 14.1475 3.3495L16.8437 8.72357C16.9883 9.0118 17.2683 9.20905 17.5896 9.24916L23.4573 9.98155C24.2503 10.0805 24.5881 11.0384 24.0311 11.6083L19.8376 15.8987C19.6162 16.1253 19.5206 16.4455 19.5818 16.7556L20.7387 22.6136C20.8921 23.3906 20.0894 24.0095 19.371 23.6681L13.6985 20.9728Z" fill="white"/>
</svg>
