<svg width="28" height="28" viewBox="0 0 28 28" fill="none" xmlns="http://www.w3.org/2000/svg">
<path fill-rule="evenodd" clip-rule="evenodd" d="M14.3382 20.9728C14.0741 20.8473 13.7672 20.8473 13.5032 20.9728L7.83076 23.6681C7.11228 24.0095 6.30959 23.3906 6.46305 22.6136L7.6199 16.7556C7.68113 16.4455 7.58553 16.1253 7.36407 15.8987L3.17065 11.6083C2.61357 11.0384 2.95142 10.0805 3.74446 9.98155L9.61207 9.24916C9.93345 9.20905 10.2134 9.0118 10.358 8.72357L13.0542 3.3495C13.4108 2.63871 14.4306 2.63871 14.7872 3.3495L17.4834 8.72357C17.628 9.0118 17.9079 9.20905 18.2293 9.24916L24.0969 9.98155C24.8899 10.0805 25.2278 11.0384 24.6707 11.6083L20.4773 15.8987C20.2558 16.1253 20.1602 16.4455 20.2215 16.7556L21.3783 22.6136C21.5318 23.3906 20.7291 24.0095 20.0106 23.6681L14.3382 20.9728Z" fill="white"/>
</svg>
