<svg width="28" height="28" viewBox="0 0 28 28" fill="none" xmlns="http://www.w3.org/2000/svg">
<path fill-rule="evenodd" clip-rule="evenodd" d="M14.3089 20.9728C14.0448 20.8473 13.7379 20.8473 13.4739 20.9728L7.80146 23.6681C7.08298 24.0095 6.2803 23.3906 6.43375 22.6136L7.59061 16.7556C7.65183 16.4455 7.55623 16.1253 7.33478 15.8987L3.14136 11.6083C2.58428 11.0384 2.92212 10.0805 3.71516 9.98155L9.58277 9.24916C9.90415 9.20905 10.1841 9.0118 10.3287 8.72357L13.0249 3.3495C13.3815 2.63871 14.4013 2.63871 14.7579 3.3495L17.4541 8.72357C17.5987 9.0118 17.8786 9.20905 18.2 9.24916L24.0676 9.98155C24.8606 10.0805 25.1985 11.0384 24.6414 11.6083L20.448 15.8987C20.2265 16.1253 20.1309 16.4455 20.1922 16.7556L21.349 22.6136C21.5025 23.3906 20.6998 24.0095 19.9813 23.6681L14.3089 20.9728Z" fill="#343844"/>
</svg>
